<svg xmlns="http://www.w3.org/2000/svg" viewBox="0 0 480 300" fill="none">
  <defs>
    <linearGradient id="bg" x1="0" y1="0" x2="480" y2="300" gradientUnits="userSpaceOnUse">
      <stop stop-color="#0c1322"/><stop offset="1" stop-color="#080d18"/>
    </linearGradient>
    <radialGradient id="glow" cx="0" cy="0" r="1" gradientTransform="translate(440 24) rotate(135) scale(240)">
      <stop stop-color="#a855f7" stop-opacity="0.28"/><stop offset="1" stop-color="#a855f7" stop-opacity="0"/>
    </radialGradient>
  </defs>
  <rect width="480" height="300" fill="url(#bg)"/>
  <rect width="480" height="300" fill="url(#glow)"/>
  <rect x="20" y="18" width="440" height="264" rx="14" fill="#0f1828" stroke="#a855f7" stroke-opacity="0.25"/>
  <!-- header + cart -->
  <rect x="40" y="40" width="140" height="14" rx="5" fill="#ffffff" fill-opacity="0.85"/>
  <rect x="372" y="36" width="68" height="22" rx="11" fill="#a855f7" fill-opacity="0.7"/>
  <circle cx="436" cy="36" r="9" fill="#a855f7"/>
  <!-- product grid 3 x 2 -->
  <g>
    <!-- row 1 -->
    <rect x="40"  y="74" width="124" height="86" rx="10" fill="#16213a" stroke="#a855f7" stroke-opacity="0.16"/>
    <rect x="52"  y="84" width="100" height="44" rx="7" fill="#a855f7" fill-opacity="0.22"/>
    <rect x="52"  y="136" width="62" height="7" rx="3" fill="#ffffff" fill-opacity="0.5"/>
    <rect x="52"  y="148" width="38" height="7" rx="3" fill="#a855f7" fill-opacity="0.7"/>

    <rect x="178" y="74" width="124" height="86" rx="10" fill="#16213a" stroke="#a855f7" stroke-opacity="0.16"/>
    <rect x="190" y="84" width="100" height="44" rx="7" fill="#a855f7" fill-opacity="0.3"/>
    <rect x="190" y="136" width="54" height="7" rx="3" fill="#ffffff" fill-opacity="0.5"/>
    <rect x="190" y="148" width="38" height="7" rx="3" fill="#a855f7" fill-opacity="0.7"/>

    <rect x="316" y="74" width="124" height="86" rx="10" fill="#16213a" stroke="#a855f7" stroke-opacity="0.16"/>
    <rect x="328" y="84" width="100" height="44" rx="7" fill="#a855f7" fill-opacity="0.18"/>
    <rect x="328" y="136" width="66" height="7" rx="3" fill="#ffffff" fill-opacity="0.5"/>
    <rect x="328" y="148" width="38" height="7" rx="3" fill="#a855f7" fill-opacity="0.7"/>
    <!-- row 2 -->
    <rect x="40"  y="172" width="124" height="86" rx="10" fill="#16213a" stroke="#a855f7" stroke-opacity="0.16"/>
    <rect x="52"  y="182" width="100" height="44" rx="7" fill="#a855f7" fill-opacity="0.26"/>
    <rect x="52"  y="234" width="58" height="7" rx="3" fill="#ffffff" fill-opacity="0.5"/>
    <rect x="52"  y="246" width="38" height="7" rx="3" fill="#a855f7" fill-opacity="0.7"/>

    <rect x="178" y="172" width="124" height="86" rx="10" fill="#16213a" stroke="#a855f7" stroke-opacity="0.16"/>
    <rect x="190" y="182" width="100" height="44" rx="7" fill="#a855f7" fill-opacity="0.2"/>
    <rect x="190" y="234" width="64" height="7" rx="3" fill="#ffffff" fill-opacity="0.5"/>
    <rect x="190" y="246" width="38" height="7" rx="3" fill="#a855f7" fill-opacity="0.7"/>

    <rect x="316" y="172" width="124" height="86" rx="10" fill="#16213a" stroke="#a855f7" stroke-opacity="0.16"/>
    <rect x="328" y="182" width="100" height="44" rx="7" fill="#a855f7" fill-opacity="0.3"/>
    <rect x="328" y="234" width="52" height="7" rx="3" fill="#ffffff" fill-opacity="0.5"/>
    <rect x="328" y="246" width="38" height="7" rx="3" fill="#a855f7" fill-opacity="0.7"/>
  </g>
</svg>
