<svg xmlns="http://www.w3.org/2000/svg" viewBox="0 0 480 300" fill="none">
  <defs>
    <linearGradient id="bg" x1="0" y1="0" x2="480" y2="300" gradientUnits="userSpaceOnUse">
      <stop stop-color="#0c1322"/><stop offset="1" stop-color="#080d18"/>
    </linearGradient>
    <radialGradient id="glow" cx="0" cy="0" r="1" gradientTransform="translate(240 30) rotate(90) scale(240)">
      <stop stop-color="#eab308" stop-opacity="0.26"/><stop offset="1" stop-color="#eab308" stop-opacity="0"/>
    </radialGradient>
  </defs>
  <rect width="480" height="300" fill="url(#bg)"/>
  <rect width="480" height="300" fill="url(#glow)"/>
  <!-- side menu cards (left) -->
  <g opacity="0.5">
    <rect x="28" y="70" width="120" height="56" rx="10" fill="#16213a" stroke="#eab308" stroke-opacity="0.2"/>
    <circle cx="52" cy="98" r="14" fill="#eab308" fill-opacity="0.5"/>
    <rect x="74" y="88" width="60" height="8" rx="4" fill="#ffffff" fill-opacity="0.5"/>
    <rect x="74" y="102" width="40" height="7" rx="3" fill="#ffffff" fill-opacity="0.25"/>
    <rect x="28" y="138" width="120" height="56" rx="10" fill="#16213a" stroke="#eab308" stroke-opacity="0.2"/>
    <circle cx="52" cy="166" r="14" fill="#eab308" fill-opacity="0.4"/>
    <rect x="74" y="156" width="54" height="8" rx="4" fill="#ffffff" fill-opacity="0.5"/>
    <rect x="74" y="170" width="44" height="7" rx="3" fill="#ffffff" fill-opacity="0.25"/>
  </g>
  <g opacity="0.5">
    <rect x="332" y="70" width="120" height="56" rx="10" fill="#16213a" stroke="#eab308" stroke-opacity="0.2"/>
    <circle cx="356" cy="98" r="14" fill="#eab308" fill-opacity="0.45"/>
    <rect x="378" y="88" width="58" height="8" rx="4" fill="#ffffff" fill-opacity="0.5"/>
    <rect x="378" y="102" width="40" height="7" rx="3" fill="#ffffff" fill-opacity="0.25"/>
    <rect x="332" y="138" width="120" height="56" rx="10" fill="#16213a" stroke="#eab308" stroke-opacity="0.2"/>
    <circle cx="356" cy="166" r="14" fill="#eab308" fill-opacity="0.5"/>
    <rect x="378" y="156" width="52" height="8" rx="4" fill="#ffffff" fill-opacity="0.5"/>
    <rect x="378" y="170" width="46" height="7" rx="3" fill="#ffffff" fill-opacity="0.25"/>
  </g>
  <!-- phone -->
  <rect x="186" y="22" width="108" height="232" rx="20" fill="#0f1828" stroke="#eab308" stroke-opacity="0.4"/>
  <rect x="222" y="32" width="36" height="6" rx="3" fill="#1b2740"/>
  <!-- phone hero -->
  <rect x="196" y="48" width="88" height="50" rx="10" fill="#eab308" fill-opacity="0.22"/>
  <circle cx="218" cy="73" r="13" fill="#eab308" fill-opacity="0.7"/>
  <rect x="238" y="64" width="38" height="7" rx="3" fill="#ffffff" fill-opacity="0.6"/>
  <rect x="238" y="76" width="26" height="6" rx="3" fill="#ffffff" fill-opacity="0.3"/>
  <!-- phone list -->
  <g>
    <rect x="196" y="108" width="88" height="30" rx="8" fill="#16213a"/>
    <circle cx="212" cy="123" r="9" fill="#eab308" fill-opacity="0.6"/>
    <rect x="228" y="118" width="44" height="6" rx="3" fill="#ffffff" fill-opacity="0.5"/>
    <rect x="228" y="128" width="30" height="5" rx="2" fill="#ffffff" fill-opacity="0.25"/>
    <rect x="196" y="144" width="88" height="30" rx="8" fill="#16213a"/>
    <circle cx="212" cy="159" r="9" fill="#eab308" fill-opacity="0.5"/>
    <rect x="228" y="154" width="40" height="6" rx="3" fill="#ffffff" fill-opacity="0.5"/>
    <rect x="228" y="164" width="34" height="5" rx="2" fill="#ffffff" fill-opacity="0.25"/>
    <rect x="196" y="180" width="88" height="30" rx="8" fill="#16213a"/>
    <circle cx="212" cy="195" r="9" fill="#eab308" fill-opacity="0.55"/>
    <rect x="228" y="190" width="46" height="6" rx="3" fill="#ffffff" fill-opacity="0.5"/>
    <rect x="228" y="200" width="28" height="5" rx="2" fill="#ffffff" fill-opacity="0.25"/>
  </g>
  <!-- phone cta -->
  <rect x="196" y="220" width="88" height="22" rx="11" fill="#eab308" fill-opacity="0.85"/>
</svg>
