<svg xmlns="http://www.w3.org/2000/svg" viewBox="0 0 480 300" fill="none">
  <defs>
    <linearGradient id="bg" x1="0" y1="0" x2="480" y2="300" gradientUnits="userSpaceOnUse">
      <stop stop-color="#0c1322"/><stop offset="1" stop-color="#080d18"/>
    </linearGradient>
    <radialGradient id="glow" cx="0" cy="0" r="1" gradientTransform="translate(440 24) rotate(135) scale(240)">
      <stop stop-color="#ec4899" stop-opacity="0.28"/><stop offset="1" stop-color="#ec4899" stop-opacity="0"/>
    </radialGradient>
  </defs>
  <rect width="480" height="300" fill="url(#bg)"/>
  <rect width="480" height="300" fill="url(#glow)"/>
  <rect x="20" y="18" width="440" height="264" rx="14" fill="#0f1828" stroke="#ec4899" stroke-opacity="0.25"/>
  <rect x="40" y="40" width="130" height="14" rx="5" fill="#ffffff" fill-opacity="0.85"/>
  <!-- car list rows (left) -->
  <g>
    <rect x="40" y="74" width="222" height="52" rx="10" fill="#16213a" stroke="#ec4899" stroke-opacity="0.16"/>
    <rect x="52" y="86" width="56" height="28" rx="7" fill="#ec4899" fill-opacity="0.3"/>
    <rect x="120" y="88" width="84" height="8" rx="4" fill="#ffffff" fill-opacity="0.6"/>
    <rect x="120" y="103" width="50" height="7" rx="3" fill="#ec4899" fill-opacity="0.7"/>
    <rect x="222" y="92" width="28" height="14" rx="7" fill="#ec4899" fill-opacity="0.45"/>

    <rect x="40" y="138" width="222" height="52" rx="10" fill="#16213a" stroke="#ec4899" stroke-opacity="0.16"/>
    <rect x="52" y="150" width="56" height="28" rx="7" fill="#ec4899" fill-opacity="0.22"/>
    <rect x="120" y="152" width="72" height="8" rx="4" fill="#ffffff" fill-opacity="0.6"/>
    <rect x="120" y="167" width="58" height="7" rx="3" fill="#ec4899" fill-opacity="0.7"/>
    <rect x="222" y="156" width="28" height="14" rx="7" fill="#ec4899" fill-opacity="0.45"/>

    <rect x="40" y="202" width="222" height="52" rx="10" fill="#16213a" stroke="#ec4899" stroke-opacity="0.16"/>
    <rect x="52" y="214" width="56" height="28" rx="7" fill="#ec4899" fill-opacity="0.35"/>
    <rect x="120" y="216" width="90" height="8" rx="4" fill="#ffffff" fill-opacity="0.6"/>
    <rect x="120" y="231" width="46" height="7" rx="3" fill="#ec4899" fill-opacity="0.7"/>
    <rect x="222" y="220" width="28" height="14" rx="7" fill="#ec4899" fill-opacity="0.45"/>
  </g>
  <!-- map panel (right) -->
  <rect x="278" y="74" width="162" height="180" rx="10" fill="#16213a" stroke="#ec4899" stroke-opacity="0.18"/>
  <g stroke="#ec4899" stroke-opacity="0.16" stroke-width="2">
    <path d="M278 120 H440"/><path d="M278 168 H440"/><path d="M278 212 H440"/>
    <path d="M330 74 V254"/><path d="M388 74 V254"/>
  </g>
  <path d="M300 240 Q340 150 360 150 T432 96" stroke="#ec4899" stroke-opacity="0.7" stroke-width="3" stroke-linecap="round" stroke-dasharray="6 7"/>
  <circle cx="360" cy="150" r="9" fill="#ec4899" fill-opacity="0.85"/>
  <circle cx="360" cy="150" r="3.5" fill="#0f1828"/>
</svg>
